<mxfile host="app.diagrams.net" agent="Mozilla/5.0 (Windows NT 10.0; Win64; x64) AppleWebKit/537.36 (KHTML, like Gecko) Chrome/128.0.0.0 Safari/537.36" version="24.7.8">
  <diagram name="Page-1" id="3A66METMth8Vbupnnl0n">
    <mxGraphModel dx="1313" dy="1875" grid="1" gridSize="10" guides="1" tooltips="1" connect="1" arrows="1" fold="1" page="1" pageScale="1" pageWidth="827" pageHeight="1169" math="0" shadow="0">
      <root>
        <mxCell id="0" />
        <mxCell id="1" parent="0" />
        <mxCell id="1xV-sr9cjHd3LcYHCVS8-10" value="" style="rounded=1;whiteSpace=wrap;html=1;fillColor=#f8cecc;strokeColor=#140909;dashed=1;" parent="1" vertex="1">
          <mxGeometry x="550" y="-100" width="370" height="380" as="geometry" />
        </mxCell>
        <mxCell id="1xV-sr9cjHd3LcYHCVS8-12" value="" style="rounded=1;whiteSpace=wrap;html=1;fillColor=#e1d5e7;strokeColor=#000000;dashed=1;" parent="1" vertex="1">
          <mxGeometry x="550" y="400" width="370" height="160" as="geometry" />
        </mxCell>
        <mxCell id="1xV-sr9cjHd3LcYHCVS8-11" value="" style="rounded=1;whiteSpace=wrap;html=1;fillColor=#dae8fc;strokeColor=#000000;dashed=1;" parent="1" vertex="1">
          <mxGeometry x="550" y="290" width="370" height="100" as="geometry" />
        </mxCell>
        <mxCell id="6TZLIThA7y1S9sZSWOoX-13" style="edgeStyle=orthogonalEdgeStyle;rounded=0;orthogonalLoop=1;jettySize=auto;html=1;exitX=1;exitY=0.5;exitDx=0;exitDy=0;entryX=0;entryY=0.5;entryDx=0;entryDy=0;strokeWidth=2;" parent="1" source="6TZLIThA7y1S9sZSWOoX-1" target="6TZLIThA7y1S9sZSWOoX-2" edge="1">
          <mxGeometry relative="1" as="geometry" />
        </mxCell>
        <mxCell id="6TZLIThA7y1S9sZSWOoX-1" value="&lt;font style=&quot;font-size: 14px;&quot;&gt;Start&lt;/font&gt;" style="ellipse;whiteSpace=wrap;html=1;strokeWidth=2;" parent="1" vertex="1">
          <mxGeometry x="10" y="310" width="120" height="60" as="geometry" />
        </mxCell>
        <mxCell id="6TZLIThA7y1S9sZSWOoX-4" style="edgeStyle=orthogonalEdgeStyle;rounded=0;orthogonalLoop=1;jettySize=auto;html=1;exitX=1;exitY=0.5;exitDx=0;exitDy=0;entryX=0;entryY=0.5;entryDx=0;entryDy=0;strokeWidth=2;" parent="1" source="6TZLIThA7y1S9sZSWOoX-2" target="6TZLIThA7y1S9sZSWOoX-3" edge="1">
          <mxGeometry relative="1" as="geometry" />
        </mxCell>
        <mxCell id="6TZLIThA7y1S9sZSWOoX-2" value="&lt;font style=&quot;font-size: 14px;&quot;&gt;Home&lt;/font&gt;" style="rounded=1;whiteSpace=wrap;html=1;strokeWidth=2;" parent="1" vertex="1">
          <mxGeometry x="180" y="310" width="120" height="60" as="geometry" />
        </mxCell>
        <mxCell id="6TZLIThA7y1S9sZSWOoX-7" style="edgeStyle=orthogonalEdgeStyle;rounded=0;orthogonalLoop=1;jettySize=auto;html=1;exitX=1;exitY=0.5;exitDx=0;exitDy=0;entryX=0;entryY=0.5;entryDx=0;entryDy=0;strokeWidth=2;" parent="1" source="6TZLIThA7y1S9sZSWOoX-3" target="6TZLIThA7y1S9sZSWOoX-6" edge="1">
          <mxGeometry relative="1" as="geometry">
            <mxPoint x="497.9999999999998" y="340" as="sourcePoint" />
          </mxGeometry>
        </mxCell>
        <mxCell id="1xV-sr9cjHd3LcYHCVS8-3" style="edgeStyle=orthogonalEdgeStyle;rounded=0;orthogonalLoop=1;jettySize=auto;html=1;exitX=0.5;exitY=0;exitDx=0;exitDy=0;entryX=0.5;entryY=0;entryDx=0;entryDy=0;strokeWidth=2;" parent="1" source="6TZLIThA7y1S9sZSWOoX-3" target="6TZLIThA7y1S9sZSWOoX-2" edge="1">
          <mxGeometry relative="1" as="geometry">
            <Array as="points">
              <mxPoint x="414" y="260" />
              <mxPoint x="240" y="260" />
            </Array>
          </mxGeometry>
        </mxCell>
        <mxCell id="1xV-sr9cjHd3LcYHCVS8-6" style="edgeStyle=orthogonalEdgeStyle;rounded=0;orthogonalLoop=1;jettySize=auto;html=1;exitX=1;exitY=0.5;exitDx=0;exitDy=0;entryX=0;entryY=0.5;entryDx=0;entryDy=0;strokeWidth=2;" parent="1" source="6TZLIThA7y1S9sZSWOoX-3" target="6TZLIThA7y1S9sZSWOoX-8" edge="1">
          <mxGeometry relative="1" as="geometry">
            <mxPoint x="497.9999999999998" y="340" as="sourcePoint" />
            <Array as="points">
              <mxPoint x="530" y="340" />
              <mxPoint x="530" y="95" />
            </Array>
          </mxGeometry>
        </mxCell>
        <mxCell id="1xV-sr9cjHd3LcYHCVS8-7" style="edgeStyle=orthogonalEdgeStyle;rounded=0;orthogonalLoop=1;jettySize=auto;html=1;exitX=1;exitY=0.5;exitDx=0;exitDy=0;entryX=0;entryY=0.5;entryDx=0;entryDy=0;strokeWidth=2;" parent="1" source="6TZLIThA7y1S9sZSWOoX-3" target="6TZLIThA7y1S9sZSWOoX-9" edge="1">
          <mxGeometry relative="1" as="geometry">
            <mxPoint x="497.9999999999998" y="340" as="sourcePoint" />
            <Array as="points">
              <mxPoint x="530" y="340" />
              <mxPoint x="530" y="483" />
            </Array>
          </mxGeometry>
        </mxCell>
        <mxCell id="6TZLIThA7y1S9sZSWOoX-3" value="&lt;font style=&quot;font-size: 14px;&quot;&gt;Logged&amp;nbsp;&lt;/font&gt;&lt;div style=&quot;font-size: 14px;&quot;&gt;&lt;font style=&quot;font-size: 14px;&quot;&gt;In?&lt;/font&gt;&lt;/div&gt;" style="rhombus;whiteSpace=wrap;html=1;strokeWidth=2;" parent="1" vertex="1">
          <mxGeometry x="367" y="295" width="94" height="90" as="geometry" />
        </mxCell>
        <mxCell id="6TZLIThA7y1S9sZSWOoX-31" style="edgeStyle=orthogonalEdgeStyle;rounded=0;orthogonalLoop=1;jettySize=auto;html=1;exitX=1;exitY=0.5;exitDx=0;exitDy=0;entryX=0;entryY=0.5;entryDx=0;entryDy=0;strokeWidth=2;" parent="1" source="6TZLIThA7y1S9sZSWOoX-6" target="6TZLIThA7y1S9sZSWOoX-30" edge="1">
          <mxGeometry relative="1" as="geometry" />
        </mxCell>
        <mxCell id="6TZLIThA7y1S9sZSWOoX-6" value="&lt;font style=&quot;font-size: 14px;&quot;&gt;Terms&lt;/font&gt;" style="rounded=1;whiteSpace=wrap;html=1;strokeWidth=2;" parent="1" vertex="1">
          <mxGeometry x="577" y="310" width="120" height="60" as="geometry" />
        </mxCell>
        <mxCell id="NVyG5iD4AKRnxz9byujx-2" style="edgeStyle=orthogonalEdgeStyle;rounded=0;orthogonalLoop=1;jettySize=auto;html=1;exitX=1;exitY=0.5;exitDx=0;exitDy=0;entryX=0;entryY=0.5;entryDx=0;entryDy=0;strokeWidth=2;" edge="1" parent="1" source="6TZLIThA7y1S9sZSWOoX-8" target="6TZLIThA7y1S9sZSWOoX-23">
          <mxGeometry relative="1" as="geometry" />
        </mxCell>
        <mxCell id="6TZLIThA7y1S9sZSWOoX-8" value="&lt;font style=&quot;font-size: 14px;&quot;&gt;Backoffice&lt;/font&gt;" style="rounded=1;whiteSpace=wrap;html=1;strokeWidth=2;" parent="1" vertex="1">
          <mxGeometry x="577" y="65" width="120" height="60" as="geometry" />
        </mxCell>
        <mxCell id="1xV-sr9cjHd3LcYHCVS8-8" style="edgeStyle=orthogonalEdgeStyle;rounded=0;orthogonalLoop=1;jettySize=auto;html=1;exitX=1;exitY=0.5;exitDx=0;exitDy=0;entryX=0;entryY=0.5;entryDx=0;entryDy=0;strokeWidth=2;" parent="1" source="6TZLIThA7y1S9sZSWOoX-9" target="1xV-sr9cjHd3LcYHCVS8-1" edge="1">
          <mxGeometry relative="1" as="geometry" />
        </mxCell>
        <mxCell id="1xV-sr9cjHd3LcYHCVS8-9" style="edgeStyle=orthogonalEdgeStyle;rounded=0;orthogonalLoop=1;jettySize=auto;html=1;exitX=1;exitY=0.5;exitDx=0;exitDy=0;strokeWidth=2;" parent="1" source="6TZLIThA7y1S9sZSWOoX-9" target="1xV-sr9cjHd3LcYHCVS8-2" edge="1">
          <mxGeometry relative="1" as="geometry" />
        </mxCell>
        <mxCell id="6TZLIThA7y1S9sZSWOoX-9" value="&lt;font style=&quot;font-size: 14px;&quot;&gt;Doctor Area&lt;/font&gt;" style="rounded=1;whiteSpace=wrap;html=1;strokeWidth=2;" parent="1" vertex="1">
          <mxGeometry x="590" y="453" width="120" height="60" as="geometry" />
        </mxCell>
        <mxCell id="6TZLIThA7y1S9sZSWOoX-21" value="&lt;font style=&quot;font-size: 14px;&quot;&gt;Edit Form&lt;/font&gt;" style="rounded=1;whiteSpace=wrap;html=1;strokeWidth=2;" parent="1" vertex="1">
          <mxGeometry x="760" y="-10" width="120" height="60" as="geometry" />
        </mxCell>
        <mxCell id="6TZLIThA7y1S9sZSWOoX-23" value="&lt;font style=&quot;font-size: 15px;&quot;&gt;Edit&amp;nbsp;&lt;/font&gt;&lt;div style=&quot;font-size: 15px;&quot;&gt;&lt;font style=&quot;font-size: 15px;&quot;&gt;Inconsistencies&lt;/font&gt;&lt;/div&gt;" style="rounded=1;whiteSpace=wrap;html=1;strokeWidth=2;" parent="1" vertex="1">
          <mxGeometry x="760" y="65" width="120" height="60" as="geometry" />
        </mxCell>
        <mxCell id="6TZLIThA7y1S9sZSWOoX-24" value="&lt;font style=&quot;font-size: 14px;&quot;&gt;Manage Users&lt;/font&gt;" style="rounded=1;whiteSpace=wrap;html=1;strokeWidth=2;" parent="1" vertex="1">
          <mxGeometry x="760" y="210" width="120" height="60" as="geometry" />
        </mxCell>
        <mxCell id="6TZLIThA7y1S9sZSWOoX-30" value="&lt;font style=&quot;font-size: 14px;&quot;&gt;Form&lt;/font&gt;" style="rounded=1;whiteSpace=wrap;html=1;strokeWidth=2;" parent="1" vertex="1">
          <mxGeometry x="777" y="310" width="120" height="60" as="geometry" />
        </mxCell>
        <mxCell id="6TZLIThA7y1S9sZSWOoX-32" value="&lt;span style=&quot;font-size: 15px;&quot;&gt;Edit&lt;/span&gt;&lt;div&gt;&lt;span style=&quot;font-size: 15px;&quot;&gt;Terms&lt;/span&gt;&lt;/div&gt;" style="rounded=1;whiteSpace=wrap;html=1;strokeWidth=2;" parent="1" vertex="1">
          <mxGeometry x="760" y="138" width="120" height="60" as="geometry" />
        </mxCell>
        <mxCell id="1xV-sr9cjHd3LcYHCVS8-1" value="&lt;span style=&quot;font-size: 15px;&quot;&gt;Pending&lt;/span&gt;&lt;div&gt;&lt;span style=&quot;font-size: 15px;&quot;&gt;Submissions&lt;/span&gt;&lt;/div&gt;" style="rounded=1;whiteSpace=wrap;html=1;strokeWidth=2;" parent="1" vertex="1">
          <mxGeometry x="777" y="410" width="120" height="60" as="geometry" />
        </mxCell>
        <mxCell id="1xV-sr9cjHd3LcYHCVS8-2" value="&lt;span style=&quot;font-size: 15px;&quot;&gt;Medication&lt;/span&gt;&lt;div&gt;&lt;span style=&quot;font-size: 15px;&quot;&gt;Info&lt;/span&gt;&lt;/div&gt;" style="rounded=1;whiteSpace=wrap;html=1;strokeWidth=2;" parent="1" vertex="1">
          <mxGeometry x="777" y="492" width="120" height="60" as="geometry" />
        </mxCell>
        <mxCell id="1xV-sr9cjHd3LcYHCVS8-4" value="&lt;font style=&quot;font-size: 13px;&quot;&gt;Yes&lt;/font&gt;" style="text;html=1;align=center;verticalAlign=middle;whiteSpace=wrap;rounded=0;" parent="1" vertex="1">
          <mxGeometry x="453" y="316" width="30" height="20" as="geometry" />
        </mxCell>
        <mxCell id="1xV-sr9cjHd3LcYHCVS8-5" value="&lt;font style=&quot;font-size: 13px;&quot;&gt;No&lt;/font&gt;" style="text;html=1;align=center;verticalAlign=middle;whiteSpace=wrap;rounded=0;" parent="1" vertex="1">
          <mxGeometry x="388" y="265" width="26" height="30" as="geometry" />
        </mxCell>
        <mxCell id="1xV-sr9cjHd3LcYHCVS8-14" value="" style="rounded=1;whiteSpace=wrap;html=1;fillColor=#f8cecc;strokeColor=#140909;dashed=1;" parent="1" vertex="1">
          <mxGeometry x="70" y="407" width="40" height="32" as="geometry" />
        </mxCell>
        <mxCell id="1xV-sr9cjHd3LcYHCVS8-15" value="&lt;font style=&quot;font-size: 13px;&quot;&gt;Accessible to users with admin role&lt;/font&gt;" style="text;html=1;align=center;verticalAlign=middle;whiteSpace=wrap;rounded=0;" parent="1" vertex="1">
          <mxGeometry x="120" y="408" width="180" height="30" as="geometry" />
        </mxCell>
        <mxCell id="1xV-sr9cjHd3LcYHCVS8-17" value="&lt;font style=&quot;font-size: 13px;&quot;&gt;Accessible to users with doctor role&lt;/font&gt;" style="text;html=1;align=center;verticalAlign=middle;whiteSpace=wrap;rounded=0;" parent="1" vertex="1">
          <mxGeometry x="120" y="455" width="180" height="30" as="geometry" />
        </mxCell>
        <mxCell id="1xV-sr9cjHd3LcYHCVS8-19" value="&lt;font style=&quot;font-size: 13px;&quot;&gt;Accessible to users with donor role&lt;/font&gt;" style="text;html=1;align=center;verticalAlign=middle;whiteSpace=wrap;rounded=0;" parent="1" vertex="1">
          <mxGeometry x="120" y="501" width="180" height="30" as="geometry" />
        </mxCell>
        <mxCell id="1xV-sr9cjHd3LcYHCVS8-20" value="" style="rounded=1;whiteSpace=wrap;html=1;fillColor=#dae8fc;strokeColor=#000000;dashed=1;" parent="1" vertex="1">
          <mxGeometry x="70" y="494" width="40" height="32" as="geometry" />
        </mxCell>
        <mxCell id="1xV-sr9cjHd3LcYHCVS8-22" value="" style="rounded=1;whiteSpace=wrap;html=1;fillColor=#e1d5e7;strokeColor=#000000;dashed=1;" parent="1" vertex="1">
          <mxGeometry x="70" y="453" width="40" height="32" as="geometry" />
        </mxCell>
        <mxCell id="NVyG5iD4AKRnxz9byujx-1" value="&lt;font style=&quot;font-size: 14px;&quot;&gt;Statistics&lt;/font&gt;" style="rounded=1;whiteSpace=wrap;html=1;strokeWidth=2;" vertex="1" parent="1">
          <mxGeometry x="760" y="-80" width="120" height="60" as="geometry" />
        </mxCell>
        <mxCell id="NVyG5iD4AKRnxz9byujx-3" value="" style="endArrow=classic;startArrow=classic;html=1;rounded=0;strokeWidth=2;entryX=0;entryY=0.5;entryDx=0;entryDy=0;edgeStyle=orthogonalEdgeStyle;exitX=0;exitY=0.5;exitDx=0;exitDy=0;" edge="1" parent="1" source="6TZLIThA7y1S9sZSWOoX-24" target="NVyG5iD4AKRnxz9byujx-1">
          <mxGeometry width="50" height="50" relative="1" as="geometry">
            <mxPoint x="690" y="180" as="sourcePoint" />
            <mxPoint x="740" y="130" as="targetPoint" />
            <Array as="points">
              <mxPoint x="730" y="240" />
              <mxPoint x="730" y="-50" />
            </Array>
          </mxGeometry>
        </mxCell>
        <mxCell id="NVyG5iD4AKRnxz9byujx-4" value="" style="endArrow=classic;startArrow=classic;html=1;rounded=0;strokeWidth=2;entryX=0;entryY=0.5;entryDx=0;entryDy=0;edgeStyle=orthogonalEdgeStyle;exitX=0;exitY=0.5;exitDx=0;exitDy=0;" edge="1" parent="1" source="6TZLIThA7y1S9sZSWOoX-32" target="6TZLIThA7y1S9sZSWOoX-21">
          <mxGeometry width="50" height="50" relative="1" as="geometry">
            <mxPoint x="730" y="170" as="sourcePoint" />
            <mxPoint x="780" y="120" as="targetPoint" />
            <Array as="points">
              <mxPoint x="730" y="168" />
              <mxPoint x="730" y="20" />
            </Array>
          </mxGeometry>
        </mxCell>
      </root>
    </mxGraphModel>
  </diagram>
</mxfile>
